<mxfile host="app.diagrams.net" modified="2023-01-15T14:31:44.334Z" agent="5.0 (Macintosh; Intel Mac OS X 10_15_7) AppleWebKit/537.36 (KHTML, like Gecko) Chrome/106.0.0.0 Safari/537.36" etag="4rWa5nXdJoCfp7w1F4Cv" version="20.8.5" type="github">
  <diagram id="C5RBs43oDa-KdzZeNtuy" name="Page-1">
    <mxGraphModel dx="1949" dy="762" grid="1" gridSize="10" guides="1" tooltips="1" connect="1" arrows="1" fold="1" page="1" pageScale="1" pageWidth="827" pageHeight="1169" math="0" shadow="0">
      <root>
        <mxCell id="WIyWlLk6GJQsqaUBKTNV-0" />
        <mxCell id="WIyWlLk6GJQsqaUBKTNV-1" parent="WIyWlLk6GJQsqaUBKTNV-0" />
        <mxCell id="lR82KbtdrRhrwkLevF8A-18" value="" style="rounded=1;whiteSpace=wrap;html=1;arcSize=0;fillColor=#d0cee2;strokeColor=#56517e;" vertex="1" parent="WIyWlLk6GJQsqaUBKTNV-1">
          <mxGeometry x="390" y="320" width="290" height="160" as="geometry" />
        </mxCell>
        <mxCell id="lR82KbtdrRhrwkLevF8A-19" value="Online Book Shop" style="text;strokeColor=none;fillColor=none;html=1;fontSize=24;fontStyle=1;verticalAlign=middle;align=center;fontColor=#000000;rounded=1;" vertex="1" parent="WIyWlLk6GJQsqaUBKTNV-1">
          <mxGeometry x="488" y="330" width="100" height="40" as="geometry" />
        </mxCell>
        <UserObject label="[Software&amp;nbsp;System]" placeholders="1" name="Variable" id="lR82KbtdrRhrwkLevF8A-20">
          <mxCell style="text;html=1;strokeColor=none;fillColor=none;align=center;verticalAlign=middle;whiteSpace=wrap;overflow=hidden;fontColor=#000000;rounded=1;" vertex="1" parent="WIyWlLk6GJQsqaUBKTNV-1">
            <mxGeometry x="473" y="360" width="130" height="20" as="geometry" />
          </mxCell>
        </UserObject>
        <UserObject label="Allows customers to search and buy books.&lt;br&gt;" placeholders="1" name="Variable" id="lR82KbtdrRhrwkLevF8A-21">
          <mxCell style="text;html=1;strokeColor=none;fillColor=none;align=center;verticalAlign=middle;whiteSpace=wrap;overflow=hidden;fontColor=#000000;rounded=1;" vertex="1" parent="WIyWlLk6GJQsqaUBKTNV-1">
            <mxGeometry x="406.25" y="400" width="240" height="20" as="geometry" />
          </mxCell>
        </UserObject>
        <UserObject label="Allows customers to see and share ther review." placeholders="1" name="Variable" id="lR82KbtdrRhrwkLevF8A-22">
          <mxCell style="text;html=1;strokeColor=none;fillColor=none;align=center;verticalAlign=middle;whiteSpace=wrap;overflow=hidden;fontColor=#000000;rounded=1;" vertex="1" parent="WIyWlLk6GJQsqaUBKTNV-1">
            <mxGeometry x="408.25" y="420" width="257.5" height="20" as="geometry" />
          </mxCell>
        </UserObject>
        <UserObject label="Allows customers pay online or after delivery." placeholders="1" name="Variable" id="lR82KbtdrRhrwkLevF8A-23">
          <mxCell style="text;html=1;strokeColor=none;fillColor=none;align=center;verticalAlign=middle;whiteSpace=wrap;overflow=hidden;fontColor=#000000;rounded=1;" vertex="1" parent="WIyWlLk6GJQsqaUBKTNV-1">
            <mxGeometry x="406.25" y="440" width="250" height="20" as="geometry" />
          </mxCell>
        </UserObject>
        <mxCell id="lR82KbtdrRhrwkLevF8A-24" value="" style="rounded=1;whiteSpace=wrap;html=1;arcSize=22;fillColor=#fad9d5;strokeColor=#ae4132;" vertex="1" parent="WIyWlLk6GJQsqaUBKTNV-1">
          <mxGeometry x="402.5" y="90" width="265" height="140" as="geometry" />
        </mxCell>
        <mxCell id="lR82KbtdrRhrwkLevF8A-25" value="Online Book Shop &lt;br&gt;Customer" style="text;strokeColor=none;fillColor=none;html=1;fontSize=24;fontStyle=1;verticalAlign=middle;align=center;fontColor=#000000;rounded=1;" vertex="1" parent="WIyWlLk6GJQsqaUBKTNV-1">
          <mxGeometry x="435" y="105" width="200" height="40" as="geometry" />
        </mxCell>
        <UserObject label="[Person]" placeholders="1" name="Variable" id="lR82KbtdrRhrwkLevF8A-26">
          <mxCell style="text;html=1;strokeColor=none;fillColor=none;align=center;verticalAlign=middle;whiteSpace=wrap;overflow=hidden;fontColor=#000000;rounded=1;" vertex="1" parent="WIyWlLk6GJQsqaUBKTNV-1">
            <mxGeometry x="500" y="155" width="80" height="20" as="geometry" />
          </mxCell>
        </UserObject>
        <mxCell id="lR82KbtdrRhrwkLevF8A-27" value="" style="ellipse;whiteSpace=wrap;html=1;aspect=fixed;fillColor=#fad9d5;strokeColor=#ae4132;rounded=1;" vertex="1" parent="WIyWlLk6GJQsqaUBKTNV-1">
          <mxGeometry x="497" y="20" width="80" height="80" as="geometry" />
        </mxCell>
        <mxCell id="lR82KbtdrRhrwkLevF8A-28" value="A customer of the &quot;Online Book Shop&#39; with personal account." style="text;html=1;strokeColor=none;fillColor=none;align=center;verticalAlign=middle;whiteSpace=wrap;rounded=1;fontColor=#000000;" vertex="1" parent="WIyWlLk6GJQsqaUBKTNV-1">
          <mxGeometry x="415" y="175" width="237.5" height="45" as="geometry" />
        </mxCell>
        <mxCell id="lR82KbtdrRhrwkLevF8A-29" value="" style="rounded=1;whiteSpace=wrap;html=1;arcSize=0;fillColor=#f5f5f5;strokeColor=#666666;gradientColor=#b3b3b3;" vertex="1" parent="WIyWlLk6GJQsqaUBKTNV-1">
          <mxGeometry x="850" y="360" width="200" height="80" as="geometry" />
        </mxCell>
        <mxCell id="lR82KbtdrRhrwkLevF8A-30" value="E-mail System" style="text;strokeColor=none;fillColor=none;html=1;fontSize=24;fontStyle=1;verticalAlign=middle;align=center;fontColor=#000000;rounded=1;" vertex="1" parent="WIyWlLk6GJQsqaUBKTNV-1">
          <mxGeometry x="902" y="360" width="100" height="40" as="geometry" />
        </mxCell>
        <UserObject label="[Software System]" placeholders="1" name="Variable" id="lR82KbtdrRhrwkLevF8A-31">
          <mxCell style="text;html=1;strokeColor=none;fillColor=none;align=center;verticalAlign=middle;whiteSpace=wrap;overflow=hidden;fontColor=#000000;rounded=1;" vertex="1" parent="WIyWlLk6GJQsqaUBKTNV-1">
            <mxGeometry x="887" y="390" width="130" height="20" as="geometry" />
          </mxCell>
        </UserObject>
        <UserObject label="SMTP" placeholders="1" name="Variable" id="lR82KbtdrRhrwkLevF8A-32">
          <mxCell style="text;html=1;strokeColor=none;fillColor=none;align=center;verticalAlign=middle;whiteSpace=wrap;overflow=hidden;fontColor=#000000;rounded=1;" vertex="1" parent="WIyWlLk6GJQsqaUBKTNV-1">
            <mxGeometry x="920" y="415" width="52" height="20" as="geometry" />
          </mxCell>
        </UserObject>
        <mxCell id="lR82KbtdrRhrwkLevF8A-46" value="" style="rounded=1;whiteSpace=wrap;html=1;arcSize=0;fillColor=#f5f5f5;strokeColor=#666666;gradientColor=#b3b3b3;" vertex="1" parent="WIyWlLk6GJQsqaUBKTNV-1">
          <mxGeometry x="-10" y="335" width="213" height="115" as="geometry" />
        </mxCell>
        <mxCell id="lR82KbtdrRhrwkLevF8A-47" value="Postal Service" style="text;strokeColor=none;fillColor=none;html=1;fontSize=24;fontStyle=1;verticalAlign=middle;align=center;fontColor=#000000;rounded=1;" vertex="1" parent="WIyWlLk6GJQsqaUBKTNV-1">
          <mxGeometry y="335" width="196.5" height="40" as="geometry" />
        </mxCell>
        <UserObject label="[Delivery System]" placeholders="1" name="Variable" id="lR82KbtdrRhrwkLevF8A-48">
          <mxCell style="text;html=1;strokeColor=none;fillColor=none;align=center;verticalAlign=middle;whiteSpace=wrap;overflow=hidden;fontColor=#000000;rounded=1;" vertex="1" parent="WIyWlLk6GJQsqaUBKTNV-1">
            <mxGeometry x="33.5" y="365" width="130" height="20" as="geometry" />
          </mxCell>
        </UserObject>
        <UserObject label="Delivers orders and to pick-up point." placeholders="1" name="Variable" id="lR82KbtdrRhrwkLevF8A-50">
          <mxCell style="text;html=1;strokeColor=none;fillColor=none;align=left;verticalAlign=middle;whiteSpace=wrap;overflow=hidden;fontColor=#000000;rounded=1;" vertex="1" parent="WIyWlLk6GJQsqaUBKTNV-1">
            <mxGeometry x="1.5" y="385" width="198.5" height="25" as="geometry" />
          </mxCell>
        </UserObject>
        <UserObject label="Charges the customer if necessary" placeholders="1" name="Variable" id="lR82KbtdrRhrwkLevF8A-52">
          <mxCell style="text;html=1;strokeColor=none;fillColor=none;align=left;verticalAlign=middle;whiteSpace=wrap;overflow=hidden;fontColor=#000000;rounded=1;" vertex="1" parent="WIyWlLk6GJQsqaUBKTNV-1">
            <mxGeometry x="1.5" y="410" width="190" height="20" as="geometry" />
          </mxCell>
        </UserObject>
        <mxCell id="lR82KbtdrRhrwkLevF8A-71" value="Receives money for order&amp;nbsp;" style="endArrow=classic;html=1;rounded=0;exitX=0.996;exitY=0.671;exitDx=0;exitDy=0;exitPerimeter=0;" edge="1" parent="WIyWlLk6GJQsqaUBKTNV-1" source="lR82KbtdrRhrwkLevF8A-46">
          <mxGeometry relative="1" as="geometry">
            <mxPoint x="210" y="410" as="sourcePoint" />
            <mxPoint x="390" y="410" as="targetPoint" />
          </mxGeometry>
        </mxCell>
        <mxCell id="lR82KbtdrRhrwkLevF8A-76" value="Sends email using" style="endArrow=classic;html=1;rounded=0;exitX=0.996;exitY=0.671;exitDx=0;exitDy=0;exitPerimeter=0;" edge="1" parent="WIyWlLk6GJQsqaUBKTNV-1">
          <mxGeometry relative="1" as="geometry">
            <mxPoint x="679.9980000000002" y="420.00499999999994" as="sourcePoint" />
            <mxPoint x="850" y="418" as="targetPoint" />
          </mxGeometry>
        </mxCell>
        <mxCell id="lR82KbtdrRhrwkLevF8A-78" value="Sends orders" style="endArrow=classic;html=1;rounded=0;entryX=0.996;entryY=0.333;entryDx=0;entryDy=0;entryPerimeter=0;exitX=-0.003;exitY=0.333;exitDx=0;exitDy=0;exitPerimeter=0;" edge="1" parent="WIyWlLk6GJQsqaUBKTNV-1" source="lR82KbtdrRhrwkLevF8A-18" target="lR82KbtdrRhrwkLevF8A-46">
          <mxGeometry x="0.0006" relative="1" as="geometry">
            <mxPoint x="460" y="300" as="sourcePoint" />
            <mxPoint x="373" y="333" as="targetPoint" />
            <mxPoint as="offset" />
          </mxGeometry>
        </mxCell>
        <mxCell id="lR82KbtdrRhrwkLevF8A-79" value="Searches books,&lt;br&gt;&amp;nbsp;leaves reviews, &lt;br&gt;buy books" style="endArrow=classic;html=1;rounded=0;entryX=0.728;entryY=0;entryDx=0;entryDy=0;exitX=0.75;exitY=1;exitDx=0;exitDy=0;entryPerimeter=0;" edge="1" parent="WIyWlLk6GJQsqaUBKTNV-1" source="lR82KbtdrRhrwkLevF8A-24" target="lR82KbtdrRhrwkLevF8A-18">
          <mxGeometry x="0.0067" relative="1" as="geometry">
            <mxPoint x="415.0000000000001" y="269.40999999999997" as="sourcePoint" />
            <mxPoint x="228.01800000000014" y="269.42499999999984" as="targetPoint" />
            <mxPoint as="offset" />
          </mxGeometry>
        </mxCell>
        <mxCell id="lR82KbtdrRhrwkLevF8A-80" value="Receives order" style="endArrow=classic;html=1;rounded=0;exitX=0.442;exitY=-0.131;exitDx=0;exitDy=0;exitPerimeter=0;" edge="1" parent="WIyWlLk6GJQsqaUBKTNV-1" source="lR82KbtdrRhrwkLevF8A-47">
          <mxGeometry relative="1" as="geometry">
            <mxPoint x="89.99800000000013" y="262.16499999999996" as="sourcePoint" />
            <mxPoint x="400" y="160" as="targetPoint" />
            <Array as="points">
              <mxPoint x="87" y="160" />
            </Array>
          </mxGeometry>
        </mxCell>
        <mxCell id="lR82KbtdrRhrwkLevF8A-81" value="Receives order" style="endArrow=classic;html=1;rounded=0;exitX=0.614;exitY=-0.021;exitDx=0;exitDy=0;exitPerimeter=0;" edge="1" parent="WIyWlLk6GJQsqaUBKTNV-1" source="lR82KbtdrRhrwkLevF8A-30">
          <mxGeometry relative="1" as="geometry">
            <mxPoint x="96.85299999999984" y="339.76" as="sourcePoint" />
            <mxPoint x="670" y="160" as="targetPoint" />
            <Array as="points">
              <mxPoint x="963" y="160" />
            </Array>
          </mxGeometry>
        </mxCell>
        <mxCell id="lR82KbtdrRhrwkLevF8A-85" value="Downloads&lt;br&gt;E-Books" style="endArrow=classic;html=1;rounded=0;entryX=0.287;entryY=0.99;entryDx=0;entryDy=0;entryPerimeter=0;exitX=0.31;exitY=-0.005;exitDx=0;exitDy=0;exitPerimeter=0;" edge="1" parent="WIyWlLk6GJQsqaUBKTNV-1" source="lR82KbtdrRhrwkLevF8A-18" target="lR82KbtdrRhrwkLevF8A-24">
          <mxGeometry x="-0.0132" relative="1" as="geometry">
            <mxPoint x="480" y="310" as="sourcePoint" />
            <mxPoint x="408.24999999999955" y="330" as="targetPoint" />
            <mxPoint as="offset" />
          </mxGeometry>
        </mxCell>
      </root>
    </mxGraphModel>
  </diagram>
</mxfile>
